<?xml version="1.0" standalone="no"?>
<!DOCTYPE svg PUBLIC "-//W3C//DTD SVG 20010904//EN"
 "http://www.w3.org/TR/2001/REC-SVG-20010904/DTD/svg10.dtd">
<svg version="1.0" xmlns="http://www.w3.org/2000/svg"
 width="500.000000pt" height="500.000000pt" viewBox="0 0 500.000000 500.000000"
 preserveAspectRatio="xMidYMid meet">
<metadata>
Created by potrace 1.14, written by Peter Selinger 2001-2017
</metadata>
<g transform="translate(0.000000,500.000000) scale(0.100000,-0.100000)"
fill="#000000" stroke="none">
<path d="M1710 4004 c-35 -13 -66 -28 -68 -33 -2 -6 -7 -9 -11 -6 -14 8 -135
-118 -124 -129 4 -3 2 -6 -4 -6 -9 0 -14 -11 -28 -62 -2 -5 -4 -10 -5 -13 -1
-3 -3 -8 -4 -12 -1 -5 -4 -12 -7 -18 -5 -9 -4 -107 2 -167 2 -16 7 -28 12 -28
5 0 7 -6 4 -12 -2 -7 6 -29 19 -49 13 -20 20 -40 16 -45 -4 -4 -1 -4 6 0 6 4
12 3 12 -2 0 -6 16 -26 35 -45 19 -19 31 -37 28 -41 -4 -4 -8 -17 -10 -29 -3
-20 -20 -81 -55 -202 -6 -22 -12 -44 -13 -50 -1 -5 -3 -12 -4 -15 -3 -6 -12
-59 -13 -77 -1 -7 -5 -13 -10 -13 -5 0 -7 -4 -3 -9 3 -5 1 -12 -5 -16 -6 -4
-8 -11 -5 -16 4 -5 3 -15 -2 -21 -4 -7 -8 -21 -9 -30 -1 -10 -3 -20 -4 -23 -1
-3 -4 -9 -5 -15 -1 -5 -4 -13 -5 -17 -1 -5 -3 -12 -4 -18 -4 -27 -19 -81 -24
-90 -4 -5 -8 -17 -9 -25 -2 -8 -5 -26 -8 -40 -9 -45 -40 -155 -48 -166 -8 -13
-53 -24 -62 -16 -8 8 -45 10 -45 3 0 -3 -40 -5 -90 -4 -49 1 -92 -3 -95 -8 -4
-5 -11 -7 -16 -4 -15 10 -71 -26 -120 -77 -78 -81 -94 -187 -46 -300 7 -16 15
-28 19 -28 5 0 8 -5 8 -10 0 -39 131 -110 209 -112 l52 -2 -2 -48 c-2 -26 -7
-48 -12 -48 -5 0 -4 -7 3 -15 7 -8 8 -15 3 -15 -5 0 -9 -10 -9 -22 -1 -13 -4
-54 -9 -93 -4 -38 -9 -81 -10 -95 -2 -14 -4 -25 -5 -25 0 0 -3 -16 -5 -35 -1
-19 -6 -66 -10 -105 -5 -38 -8 -82 -9 -97 -1 -16 -3 -28 -6 -28 -3 0 -5 -10
-6 -22 -4 -84 -10 -138 -16 -138 -4 0 -5 -6 -2 -14 5 -12 -16 -14 -121 -15
-110 0 -131 -3 -160 -21 -38 -24 -45 -37 -45 -92 0 -33 6 -47 33 -72 l34 -31
614 -2 c408 -1 626 2 649 9 31 10 68 39 71 57 10 50 3 85 -26 114 -35 37 -36
37 -181 38 l-111 1 0 404 c0 222 1 404 1 404 1 1 19 3 40 6 42 6 71 27 61 44
-3 5 -3 10 2 10 9 0 8 84 -2 99 -3 6 -2 11 2 11 5 0 8 25 6 55 -2 44 0 53 12
48 8 -3 15 -1 15 4 0 5 17 10 38 11 45 2 63 5 80 15 6 5 17 5 22 2 6 -3 10 -1
10 4 0 6 3 10 8 9 4 -1 23 4 42 11 19 8 38 13 43 12 4 0 7 3 7 9 0 5 5 10 11
10 32 0 156 107 201 175 35 53 78 150 84 190 2 11 6 38 11 60 4 22 7 66 7 97
1 32 5 58 10 58 5 0 3 6 -3 13 -6 8 -8 16 -5 20 3 3 8 38 10 79 3 70 7 101 18
136 3 9 7 29 10 43 11 67 105 214 136 214 6 0 14 5 18 10 9 13 52 35 77 40 11
2 22 4 25 5 3 1 8 2 13 1 4 0 7 2 7 7 0 4 12 8 28 8 15 1 37 4 50 7 12 3 22 1
22 -4 0 -6 5 -7 13 -2 6 4 93 9 191 9 175 2 179 1 200 -21 12 -13 40 -33 63
-44 42 -23 60 -55 41 -78 -6 -7 -7 -13 -2 -13 11 0 11 -210 1 -227 -5 -7 -4
-13 1 -13 12 0 10 -43 -3 -55 -6 -5 -27 -19 -48 -29 -62 -32 -140 -133 -150
-193 -1 -10 -5 -22 -8 -28 -3 -5 -4 -30 -3 -55 1 -25 -4 -48 -10 -52 -8 -6 -7
-8 2 -8 6 0 12 -8 12 -17 1 -19 29 -75 30 -59 0 6 6 2 13 -8 21 -29 100 -26
130 5 38 38 53 96 34 127 -5 7 -4 12 2 12 6 0 11 7 11 15 0 30 23 63 53 77 71
32 137 -3 152 -80 2 -12 6 -26 10 -31 3 -5 1 -13 -5 -16 -7 -4 -8 -11 -1 -18
10 -12 11 -17 11 -41 0 -16 40 -59 61 -65 30 -9 80 -1 104 16 35 26 49 74 40
141 -4 32 -7 65 -7 74 1 10 -4 20 -9 23 -5 4 -7 11 -4 16 4 5 1 9 -5 9 -6 0
-9 4 -6 8 3 5 -4 19 -15 30 -11 12 -17 22 -13 22 4 0 -5 14 -22 31 -34 37
-114 93 -114 82 0 -4 -5 0 -11 10 -5 9 -7 22 -4 27 3 6 1 10 -5 10 -8 0 -8 6
0 20 8 14 8 20 0 20 -7 0 -8 6 -1 18 6 11 6 24 0 35 -6 9 -6 17 -2 17 4 0 8
11 8 25 0 14 -3 25 -7 25 -4 0 -3 11 2 24 5 15 5 27 -2 34 -7 7 -6 17 1 31 8
15 8 21 1 21 -7 0 -8 6 -1 19 6 10 8 21 5 24 -3 3 14 18 38 34 23 15 49 33 56
40 7 7 21 18 30 25 27 20 84 127 75 140 -2 5 0 8 5 8 5 0 8 35 7 78 -2 74 -27
153 -60 188 -5 6 -17 21 -25 33 -8 11 -20 21 -27 21 -7 0 -13 7 -13 15 0 8 -3
14 -7 13 -5 0 -30 9 -58 22 -27 12 -65 25 -85 27 -19 3 -37 7 -39 9 -2 2 -10
-1 -18 -7 -10 -9 -13 -8 -13 0 0 7 -5 9 -12 4 -7 -4 -22 -8 -33 -9 -11 -1 -33
-7 -50 -14 -16 -7 -33 -13 -37 -12 -5 1 -8 -2 -8 -8 0 -5 -6 -10 -13 -10 -7 0
-25 -13 -40 -28 l-27 -28 -593 1 c-325 1 -595 3 -599 3 -5 1 -8 9 -8 18 0 8
-4 12 -10 9 -5 -3 -10 2 -10 11 0 10 -3 15 -6 11 -3 -3 -18 6 -33 21 -26 26
-75 58 -96 62 -5 1 -20 6 -33 11 -12 5 -26 8 -30 8 -4 -1 -9 0 -12 1 -3 1 -32
3 -65 4 -41 2 -81 -5 -125 -20z m889 -605 c-17 -16 -28 -29 -25 -29 4 0 -7
-13 -23 -29 -16 -16 -27 -32 -24 -35 4 -3 -3 -20 -15 -36 -12 -16 -23 -37 -25
-47 -2 -10 -9 -38 -16 -63 -19 -65 -22 -80 -26 -125 -2 -22 -4 -40 -5 -40 -1
0 -3 -34 -5 -75 -5 -97 -14 -211 -18 -230 -12 -58 -32 -120 -39 -120 -4 0 -8
-8 -8 -18 0 -10 -9 -28 -20 -40 -11 -12 -21 -25 -22 -29 -4 -26 -134 -136
-149 -127 -5 3 -9 1 -9 -5 0 -9 -68 -37 -82 -33 -5 1 -8 -2 -8 -6 0 -4 -10 -9
-22 -10 -13 -1 -47 -4 -76 -8 -50 -6 -53 -5 -44 12 5 11 6 28 2 39 -4 11 -4
25 1 31 5 6 0 24 -11 42 -17 28 -26 32 -62 33 -24 1 -51 0 -62 -1 -10 -1 -16
2 -13 7 3 5 9 23 12 39 7 32 7 32 25 94 7 25 14 54 16 65 1 11 3 20 4 20 1 0
3 7 5 15 2 8 9 33 15 55 6 22 13 49 15 60 2 11 4 21 5 23 2 1 3 5 5 10 1 4 5
19 9 33 4 14 9 34 11 45 2 10 4 19 5 19 2 0 5 12 13 50 2 11 7 27 10 35 4 8 9
26 11 40 3 14 13 52 22 85 9 33 18 67 19 75 2 8 8 29 14 47 5 17 7 34 4 37 -3
3 3 9 13 13 10 4 33 21 51 39 17 18 34 29 37 26 3 -3 6 1 6 8 0 33 31 37 272
38 l238 0 -31 -29z"/>
<path d="M3550 2399 c0 -7 -3 -10 -6 -7 -3 3 -29 -3 -57 -14 -29 -11 -56 -20
-62 -21 -5 -2 -16 -6 -22 -10 -7 -5 -13 -6 -13 -3 0 3 -12 -1 -27 -9 -15 -8
-30 -12 -35 -9 -4 3 -8 1 -8 -3 0 -5 -10 -9 -22 -10 -11 -1 -24 -6 -27 -10 -6
-7 -14 -10 -51 -18 -8 -2 -17 -4 -20 -5 -3 -1 -8 -2 -12 -1 -5 0 -8 -4 -8 -11
0 -6 -3 -8 -7 -5 -3 4 -12 2 -20 -4 -7 -6 -13 -8 -13 -4 0 4 -11 0 -25 -9 -14
-9 -25 -14 -25 -11 0 3 -17 -1 -37 -9 -40 -15 -70 -25 -78 -26 -2 -1 -17 -7
-32 -15 -14 -8 -30 -12 -35 -9 -4 3 -8 0 -8 -5 0 -6 -6 -10 -12 -9 -9 2 -13
-14 -14 -54 0 -32 3 -58 6 -58 3 0 6 -23 5 -50 0 -28 2 -50 5 -50 3 0 6 -17 7
-38 2 -37 9 -110 19 -187 13 -111 17 -143 18 -177 0 -21 3 -38 6 -38 3 0 6
-17 7 -37 1 -21 4 -58 7 -83 3 -25 8 -67 11 -94 3 -27 6 -50 8 -51 1 -1 38
-22 82 -45 123 -66 154 -83 240 -132 44 -25 107 -60 140 -78 33 -18 69 -39 80
-46 22 -16 56 -18 71 -5 5 5 36 23 69 41 33 18 74 41 90 50 49 27 182 99 217
118 18 9 35 19 38 22 3 3 30 18 60 34 67 35 87 49 89 59 0 4 1 8 2 10 0 1 1
21 2 45 0 23 3 42 6 42 4 0 7 17 7 38 1 20 4 57 8 82 9 65 18 152 19 178 1 12
4 22 7 22 3 0 6 15 6 33 1 29 5 64 19 172 18 131 25 198 28 245 l2 34 -165 56
c-92 31 -171 59 -177 63 -6 4 -23 8 -37 9 -14 1 -26 5 -26 9 0 4 -7 10 -16 13
-10 4 -13 2 -8 -7 6 -9 4 -9 -7 -1 -16 13 -90 39 -101 36 -5 -1 -8 3 -8 10 0
6 -3 9 -6 6 -3 -3 -29 3 -57 14 -29 11 -56 20 -62 21 -5 2 -16 6 -22 10 -8 5
-13 3 -13 -4z"/>
</g>
</svg>
